<svg xmlns="http://www.w3.org/2000/svg" width="64" height="64" viewBox="0 0 64 64">
    <defs>
        <linearGradient id="pianoBody" x1="0%" x2="100%" y1="0%" y2="100%">
            <stop offset="0%" stop-color="#111827"/>
            <stop offset="100%" stop-color="#1f2937"/>
        </linearGradient>
    </defs>
    <rect width="64" height="64" rx="10" fill="url(#pianoBody)"/>
    <rect x="10" y="16" width="44" height="36" rx="4" fill="#f8fafc"/>
    <rect x="10" y="40" width="44" height="12" rx="3" fill="#e2e8f0"/>
    <g fill="#0f172a">
        <rect x="14" y="18" width="6" height="18" rx="1.2"/>
        <rect x="24" y="18" width="6" height="18" rx="1.2"/>
        <rect x="34" y="18" width="6" height="18" rx="1.2"/>
        <rect x="44" y="18" width="6" height="18" rx="1.2"/>
    </g>
    <g fill="#94a3b8">
        <rect x="16" y="42" width="4" height="8" rx="1"/>
        <rect x="24" y="42" width="4" height="8" rx="1"/>
        <rect x="32" y="42" width="4" height="8" rx="1"/>
        <rect x="40" y="42" width="4" height="8" rx="1"/>
        <rect x="48" y="42" width="4" height="8" rx="1"/>
    </g>
</svg>
